<svg xmlns="http://www.w3.org/2000/svg" viewBox="0 0 99.77 15.41"><defs><style>.cls-1{fill:none;stroke:#231f20;stroke-miterlimit:10;stroke-width:0.5px;}</style></defs><title>Asset 13</title><g id="Layer_2" data-name="Layer 2"><g id="Layer_1-2" data-name="Layer 1"><path class="cls-1" d="M5.07,10.31A24.35,24.35,0,0,0,.27,9.23C-.93,9.29,49.5-4.42,73.13,2.44c5.26,1.53,6.79,9.25-49.55,12,0,0,5-3,6.57-8.1l.3,9.1s-.19-3.45.92-13.57c0,0,.81,2.9,1.21,10.59,0,0,4.7-7,2-11.74-.36-.63-3.2,4.38,3,4.54a1.75,1.75,0,0,0-1.8,2.11c.14.79.52,2.55,1.84,2a4.72,4.72,0,0,0,2.7-3.94c.36-2.16-.06-6.88-.76-4.43s-2.07,8.64-2,9.74S39,8.19,39.24,7.87C40,6.78,40.41,9.11,41,9.65s2.79,1.17,3.42.29S43,8,42.5,7.8s-1.59-1.21-10.75-.7c0,0,8.93-.49,10.33-.67S55.17,4.07,59.19,3.65s12.1-1.44,16.34-1.74L99.75.25"/></g></g></svg>